<svg xmlns="http://www.w3.org/2000/svg" version="1.1" xmlns:xlink="http://www.w3.org/1999/xlink" xmlns:svgjs="http://svgjs.dev/svgjs" width="1440" height="560" preserveAspectRatio="none" viewBox="0 0 1440 560"><g mask="url(&quot;#SvgjsMask1173&quot;)" fill="none"><rect width="1440" height="560" x="0" y="0" fill="url(&quot;#SvgjsLinearGradient1174&quot;)"></rect><path d="M28 140C28 111.86 6.54 110.49 0 77.78C-7.46 40.49 -25 13.89 0 0C45 -25 70 0 140 0C171.82 0 188.52 -21.42 203.64 0C237.93 48.58 211.25 75.98 238.82 140C249.43 164.65 259.41 177.33 280 177.33C300.59 177.33 314.9 165.19 321.18 140C337 76.53 294.87 41.57 324.21 0C344.28 -28.43 372.11 0 420 0C490 0 490 0 560 0C630 0 630 0 700 0C744.8 0 746.77 -8.03 789.6 0C816.77 5.09 818.26 26.25 840 26.25C851.97 26.25 842.83 2.66 857.03 0C912.83 -10.46 918.51 0 980 0C1050 0 1050 0 1120 0C1190 0 1190 0 1260 0C1330 0 1330 0 1400 0C1467 0 1512 -33.48 1534 0C1558 36.52 1489.89 77.17 1492 140C1492.89 166.48 1530.93 152.16 1540 178.62C1554.93 222.16 1540 229.31 1540 280C1540 350 1540 350 1540 420C1540 490 1575 525 1540 560C1505 595 1470 560 1400 560C1330 560 1330 560 1260 560C1190 560 1190 560 1120 560C1050 560 1050 560 980 560C910 560 910 560 840 560C792.06 560 784.7 575.56 744.11 560C714.7 548.73 721.79 506.33 700 506.33C678.55 506.33 686.46 548.95 657.63 560C616.46 575.78 608.82 560 560 560C490 560 490 560 420 560C350 560 350 560 280 560C219.21 560 213.9 570.28 158.42 560C143.9 557.31 152.55 534.07 140 534.07C116.42 534.07 114.82 554.69 86.15 560C44.82 567.65 16.41 586.67 0 560C-26.67 516.67 0 490 0 420C0 350 0 350 0 280C0 222.53 -10.55 217.82 0 165.07C3.45 147.82 28 155.5 28 140" stroke="rgba(13, 13, 13, 1)" stroke-width="2"></path><path d="M1120 105C1091.2 105.9 1072.36 113.6 1069.09 140C1061.52 201.1 1092.54 209.29 1098.33 280C1104 349.29 1083.6 354.34 1092 420C1094.43 438.99 1101.15 445.6 1120 449.3C1185.15 462.07 1195.36 464.01 1260 452.94C1280.91 449.36 1291.11 439.77 1291.11 420C1291.11 379.09 1282.77 371.38 1260 331.58C1242.72 301.38 1211 309.96 1211 280C1211 229.72 1238.33 226.44 1260 171.11C1265.74 156.44 1265.83 154.67 1265.83 140C1265.83 136.14 1264.02 135 1260 134.04C1191.1 117.5 1186.65 102.92 1120 105" stroke="rgba(104, 186, 128, 1)" stroke-width="2"></path><path d="M140 246.67C125 246.67 110 263.09 110 280C110 297.55 125 315.59 140 315.59C155 315.59 170 297.55 170 280C170 263.09 155 246.67 140 246.67" stroke="rgba(13, 13, 13, 1)" stroke-width="2"></path><path d="M1400 263.85C1370.55 263.85 1335.38 271.61 1335.38 280C1335.38 288.43 1370.88 297.5 1400 297.5C1409.27 297.5 1412.17 288.63 1412.17 280C1412.17 271.81 1408.94 263.85 1400 263.85" stroke="rgba(104, 186, 128, 1)" stroke-width="2"></path><path d="M86.33 140C86.33 100.94 114.33 55.26 140 55.26C164.84 55.26 187.35 100.46 187.35 140C187.35 168.38 164.48 191.11 140 191.11C113.97 191.11 86.33 168.86 86.33 140" stroke="rgba(104, 186, 128, 1)" stroke-width="2"></path><path d="M372.65 140C409.44 79.55 393.22 68.29 416.32 0C416.9 -1.71 418.16 0 420 0C490 0 490 0 560 0C567 0 569.42 -5.06 574 0C632.81 64.94 670.43 63.59 686.79 140C700.41 203.59 671.13 216.87 633.96 280C607.73 324.56 600.56 355.38 560 355.38C509.13 355.38 502.58 321 451.11 280C432.58 265.24 435.31 243.87 420 243.87C405.02 243.87 394.49 258 390.53 280C378.64 346.07 380.04 351.31 388.3 420C394.77 473.81 383.13 511.12 420 525C468.98 543.43 501.12 473.86 560 484.62C596.91 491.36 611.58 535.91 611.58 560C611.58 573.6 585.79 560 560 560C490 560 490 560 420 560C350 560 350 560 280 560C242.24 560 232.77 578.34 204.47 560C162.77 532.97 184.8 483.06 140 469.26C82.56 451.56 45.47 513 0 497C-24.53 488.37 0 458.5 0 420C0 350 0 350 0 280C0 248.65 -12.58 217.31 0 217.31C17.42 217.31 31.2 247.58 60 280C101.2 326.38 100 374.92 140 374.92C180 374.92 177.86 325.43 220 280C247.86 249.97 249.76 251.74 280 224C326.08 181.74 341.28 191.55 372.65 140" stroke="rgba(13, 13, 13, 1)" stroke-width="2"></path><path d="M736.84 140C743.89 102.45 799.46 133.06 840 99.17C883.2 63.06 861.64 30.23 904.32 0C931.64 -19.36 942.16 0 980 0C1050 0 1050 0 1120 0C1190 0 1190 0 1260 0C1330 0 1330 0 1400 0C1442 0 1476.34 -25.55 1484 0C1497.34 44.45 1470.34 73.69 1442 140C1428.34 171.96 1423.64 196.54 1400 196.54C1372.02 196.54 1368.53 169.14 1338.75 140C1298.53 100.65 1308.24 83.37 1260 59.57C1198.86 29.41 1184.03 16.6 1120 32.08C1044.03 50.45 1051.38 82.25 980 127.27C965.83 136.21 948.89 133.97 948.89 140C948.89 145.93 970.26 138.55 980 151.2C1024.15 208.55 1048.01 211.98 1056.67 280C1065.12 346.38 998.75 358.75 1014.22 420C1030.41 484.1 1055.87 504.2 1120 530.7C1178.76 554.98 1200.89 549.3 1260 521.57C1318.86 493.95 1308.47 471.24 1355.93 420C1378.47 395.67 1379.9 396.73 1400 370.42C1433.38 326.73 1425.93 320.03 1462.9 280C1495.93 244.24 1516.22 218.85 1540 218.85C1554.77 218.85 1540 249.42 1540 280C1540 350 1540 350 1540 420C1540 490 1575 525 1540 560C1505 595 1470 560 1400 560C1330 560 1330 560 1260 560C1190 560 1190 560 1120 560C1050 560 1050 560 980 560C910 560 910 560 840 560C816.03 560 792.05 573.87 792.05 560C792.05 532.2 807.77 510.61 840 476.67C874.25 440.61 925 453.76 925 420C925 377.82 881.29 373.4 840 324.8C821.82 303.4 819.71 304.45 806.06 280C768.13 212.05 726.92 192.86 736.84 140" stroke="rgba(13, 13, 13, 1)" stroke-width="2"></path><path d="M653.33 420C653.33 400.01 675.45 374.59 700 374.59C727.75 374.59 757.93 400.41 757.93 420C757.93 437.12 728.33 448 700 448C676.03 448 653.33 436.71 653.33 420" stroke="rgba(104, 186, 128, 1)" stroke-width="2"></path><path d="M431.2 140C433.79 93.69 501.77 71.49 560 71.49C596.55 71.49 619.25 100.42 620.75 140C623.21 204.68 596.16 211.16 567.92 280C565.78 285.2 564.34 288.08 560 288.08C554.55 288.08 552.98 285.34 548.33 280C488.58 211.3 427.96 197.94 431.2 140" stroke="rgba(13, 13, 13, 1)" stroke-width="2"></path><path d="M980 47.73C960.33 47.73 951.62 15.79 951.62 0C951.62 -8.07 965.81 0 980 0C1016.2 0 1052.41 -10.86 1052.41 0C1052.41 13.01 1010.72 47.73 980 47.73" stroke="rgba(13, 13, 13, 1)" stroke-width="2"></path><path d="M1400 113.33C1359.5 113.33 1291.82 33.52 1291.82 0C1291.82 -23.14 1345.91 0 1400 0C1417 0 1434 -12.65 1434 0C1434 44.02 1430.59 113.33 1400 113.33" stroke="rgba(13, 13, 13, 1)" stroke-width="2"></path><path d="M0 269.55C2.9 269.55 10 273.5 10 280C10 297.15 2.54 316.84 0 316.84C-2.46 316.84 0 298.42 0 280C0 274.77 -2.1 269.55 0 269.55" stroke="rgba(13, 13, 13, 1)" stroke-width="2"></path><path d="M270 280C273.84 274.36 274.34 270.67 280 270.67C288.55 270.67 295.74 270.52 298.42 280C316.87 345.19 311.7 349.8 322.26 420C332.76 489.8 355.33 511.01 340.54 560C334.2 581.01 310.27 560 280 560C265.26 560 258.55 571.03 250.53 560C207.64 501.03 173.46 487.88 178.18 420C183.19 347.88 222.93 349.03 270 280" stroke="rgba(13, 13, 13, 1)" stroke-width="2"></path><path d="M902.63 280C902.63 247.18 947.03 221.2 980 221.2C1003.22 221.2 1015 249.35 1015 280C1015 320.75 1004.92 364 980 364C948.73 364 902.63 318.58 902.63 280" stroke="rgba(13, 13, 13, 1)" stroke-width="2"></path><path d="M1513.62 280C1515.12 264.44 1531.86 259.08 1540 259.08C1545.05 259.08 1540 269.54 1540 280C1540 350 1540 350 1540 420C1540 490 1575 525 1540 560C1505 595 1470 560 1400 560C1389.23 560 1378.46 565.3 1378.46 560C1378.46 551.3 1387.28 544.2 1400 532C1460.27 474.2 1493.54 488.53 1524.44 420C1550.35 362.53 1507.34 344.9 1513.62 280" stroke="rgba(104, 186, 128, 1)" stroke-width="2"></path><path d="M542.5 560C542.5 557.88 552.36 551.92 560 551.92C563.88 551.92 565.53 557.42 565.53 560C565.53 561.46 562.76 560 560 560C551.25 560 542.5 561.92 542.5 560" stroke="rgba(104, 186, 128, 1)" stroke-width="2"></path></g><defs><mask id="SvgjsMask1173"><rect width="1440" height="560" fill="#ffffff"></rect></mask><linearGradient x1="15.28%" y1="139.29%" x2="84.72%" y2="-39.29%" gradientUnits="userSpaceOnUse" id="SvgjsLinearGradient1174"><stop stop-color="rgba(13, 13, 13, 1)" offset="0"></stop><stop stop-color="rgba(30, 66, 40, 1)" offset="1"></stop></linearGradient></defs></svg>