<svg xmlns="http://www.w3.org/2000/svg" version="1.1" xmlns:xlink="http://www.w3.org/1999/xlink" xmlns:svgjs="http://svgjs.dev/svgjs" width="1440" height="560" preserveAspectRatio="none" viewBox="0 0 1440 560"><g mask="url(&quot;#SvgjsMask1081&quot;)" fill="none"><rect width="1440" height="560" x="0" y="0" fill="url(&quot;#SvgjsLinearGradient1082&quot;)"></rect><path d="M140 121.33C131.52 130.34 125.08 128.09 123.77 140C116.33 207.42 117.24 210.66 122.5 280C125.36 317.72 128.41 354.12 140 354.12C152.16 354.12 145.11 309.95 170 280C215.11 225.74 230.17 237.1 280 185.71C298.04 167.1 301.71 165.3 305.75 140C316.52 72.45 277.67 39.15 309.62 0C334.8 -30.85 364.81 0 420 0C490 0 490 0 560 0C614.44 0 667.19 -27.12 668.89 0C671.57 42.88 560 93.16 568.75 140C575.56 176.45 638.78 166.58 700 166.58C716.33 166.58 716.72 156.14 723.86 140C753.56 72.85 733.53 48.4 773.68 0C791.6 -21.6 806.84 0 840 0C903 0 939.16 -33.09 966 0C995.94 36.91 949.33 71.06 953.56 140C956.33 185.14 965.4 228.15 980 228.15C994.92 228.15 1011.73 185.28 1012.6 140C1013.92 71.2 956.84 35.9 984.38 0C1010.54 -34.1 1052.19 0 1120 0C1190 0 1190 0 1260 0C1330 0 1330 0 1400 0C1470 0 1505 -35 1540 0C1575 35 1540 70 1540 140C1540 210 1540 210 1540 280C1540 327.84 1554.55 334.32 1540 375.67C1529.92 404.32 1491.61 391.31 1490.74 420C1488.81 483.48 1558.07 523.47 1534.4 560C1512.7 593.47 1467.2 560 1400 560C1330 560 1330 560 1260 560C1190 560 1190 560 1120 560C1087.56 560 1068.6 582 1055.12 560C1025.7 512 1055.1 486.48 1034.19 420C1017.54 367.07 1023.27 344.89 980 321.18C926.17 291.69 894.75 287.61 840 313.6C790.65 337.02 771.79 376.28 771.79 420C771.79 446.31 810.99 429.87 840 453.67C896.31 499.87 942.44 528.61 942.44 560C942.44 581.78 891.22 560 840 560C777.32 560 767.98 573.83 714.63 560C697.98 555.68 716.8 529.45 700 523.7C639.48 503 630.09 507.96 560 507.11C490.09 506.26 483.78 501.18 420 520.3C395.56 527.63 407.52 553.21 383.56 560C337.52 573.06 331.78 560 280 560C210 560 210 560 140 560C94.7 560 79.49 583.55 49.41 560C9.49 528.76 19.71 506.29 0 450.43C-4.99 436.29 0 435.22 0 420C0 350 0 350 0 280C0 210 0 210 0 140C0 70 -35 35 0 0C35 -35 70 0 140 0C197.78 0 255.56 -24.76 255.56 0C255.56 35.9 197.42 60.34 140 121.33" stroke="rgba(56, 111, 70, 1)" stroke-width="2"></path><path d="M420 242.47C386.92 242.47 358.31 259.28 358.31 280C358.31 302.64 385.73 329.19 420 329.19C475.29 329.19 537.42 302.03 537.42 280C537.42 258.67 476.47 242.47 420 242.47" stroke="rgba(56, 111, 70, 1)" stroke-width="2"></path><path d="M0 25.45C4.21 7.04 12.78 3.49 32 0C82.78 -9.23 86 0 140 0C170 0 200 -12.86 200 0C200 18.64 169.21 30.78 140 63C105.73 100.78 86.98 94.26 73.04 140C53.92 202.76 93.72 217.08 73.89 280C57.2 332.94 20.77 371.72 0 371.72C-16.17 371.72 0 325.86 0 280C0 210 0 210 0 140C0 82.72 -11.79 77.04 0 25.45" stroke="rgba(56, 111, 70, 1)" stroke-width="2"></path><path d="M345.98 140C333.26 79.06 348.46 53.83 376.92 0C385.47 -16.17 398.46 0 420 0C490 0 490 0 560 0C595 0 630 -17.27 630 0C630 28.38 597.01 47.4 560 91.3C538.01 117.4 538.32 118.36 512 140C468.32 175.9 464.24 206.39 420 206.39C381.23 206.39 354.8 182.26 345.98 140" stroke="rgba(56, 111, 70, 1)" stroke-width="2"></path><path d="M763.64 140C805.78 81.89 802.13 17.82 840 17.82C877.64 17.82 914.67 80.62 914.67 140C914.67 191.86 880.58 193.16 840 240.3C820.32 263.16 813.76 257.05 794.14 280C743.76 338.94 757.81 359.53 700 404.09C666.99 429.53 656.26 412.11 612.5 420C586.26 424.73 585.84 422.88 560 429.33C489.59 446.91 480.35 432.92 420 468.06C368.16 498.25 384.04 528.2 335.62 560C314.04 574.17 307.81 560 280 560C210 560 210 560 140 560C129.02 560 118.04 566.85 118.04 560C118.04 544.45 124.44 534.39 140 515.2C181.19 464.39 204.2 476.73 231.54 420C260.87 359.13 233.91 345.25 253.33 280C258.14 263.82 267.63 257.14 280 257.14C290.46 257.14 287.71 270.39 298.98 280C357.71 330.06 351.99 344.77 420 376.49C482.5 405.64 511.14 426.89 560 401.74C604.87 378.64 570.3 330.65 607.46 280C640.3 235.23 657.21 249.25 700 210.89C735.3 179.25 735.78 178.42 763.64 140" stroke="rgba(104, 186, 128, 1)" stroke-width="2"></path><path d="M1060.55 140C1062.18 70.28 1020.14 44.54 1039.06 0C1049.87 -25.46 1079.53 0 1120 0C1190 0 1190 0 1260 0C1330 0 1330 0 1400 0C1463.64 0 1494.01 -33.26 1527.27 0C1564.01 36.74 1533.64 70 1540 140C1540 140 1540 140 1540 140C1540 210 1540 210 1540 280C1540 298.66 1551.16 303.63 1540 317.33C1494.12 373.63 1463.84 357.73 1425.93 420C1393.84 472.7 1425.91 547.27 1400 547.27C1369.19 547.27 1359.26 481.21 1312.5 420C1289.26 389.58 1285.06 364 1260 364C1236.71 364 1239.94 393.82 1215.79 420C1169.94 469.71 1155.97 515.79 1120 515.79C1093.4 515.79 1108.06 466.91 1090.65 420C1064.31 349.02 1040.25 352.1 1032.5 280C1025.2 212.1 1058.9 210.28 1060.55 140" stroke="rgba(56, 111, 70, 1)" stroke-width="2"></path><path d="M766.87 560C766.87 542.4 805 497.97 840 497.97C871.44 497.97 899.76 541.69 899.76 560C899.76 572.7 869.88 560 840 560C803.43 560 766.87 573.42 766.87 560" stroke="rgba(104, 186, 128, 1)" stroke-width="2"></path><path d="M0 105C6.05 105 19.43 119.99 22.32 140C32.07 207.49 33.95 213.46 25.28 280C22.79 299.15 7.11 311.38 0 311.38C-5.53 311.38 0 295.69 0 280C0 210 0 210 0 140C0 122.5 -5.11 105 0 105" stroke="rgba(104, 186, 128, 1)" stroke-width="2"></path><path d="M140 4.67C136.33 4.67 132 1.25 132 0C132 -1.08 136 0 140 0C142.22 0 144.44 -0.95 144.44 0C144.44 1.38 142.55 4.67 140 4.67" stroke="rgba(104, 186, 128, 1)" stroke-width="2"></path><path d="M386.21 140C386.21 95.38 401.32 42 420 42C439.21 42 462 96.82 462 140C462 160.98 440.2 170.31 420 170.31C402.3 170.31 386.21 159.54 386.21 140" stroke="rgba(104, 186, 128, 1)" stroke-width="2"></path><path d="M560 40.58C517.11 40.58 463.45 10.56 463.45 0C463.45 -9.73 511.72 0 560 0C575.56 0 591.11 -7.68 591.11 0C591.11 12.61 580.94 40.58 560 40.58" stroke="rgba(104, 186, 128, 1)" stroke-width="2"></path><path d="M803.41 140C803.41 111.57 821.85 81.45 840 81.45C858.04 81.45 875.78 111.54 875.78 140C875.78 164.85 858.02 188.06 840 188.06C821.83 188.06 803.41 164.87 803.41 140" stroke="rgba(56, 111, 70, 1)" stroke-width="2"></path><path d="M1108.49 140C1101.92 69.92 1088.9 59 1093.75 0C1094.65 -11 1106.88 0 1120 0C1184.61 0 1188.83 -7.55 1249.23 0C1258.83 1.2 1253.7 9.39 1260 17.5C1308.09 79.39 1358 90.89 1358 140C1358 173.45 1305.84 155.64 1260 182.61C1186.84 225.64 1161.54 291.68 1120 280C1085.78 270.38 1115.05 209.92 1108.49 140" stroke="rgba(104, 186, 128, 1)" stroke-width="2"></path><path d="M666.78 280C666.78 265.18 683.34 255.19 700 255.19C716.84 255.19 733.79 265.14 733.79 280C733.79 299.82 716.8 324.55 700 324.55C683.3 324.55 666.78 299.86 666.78 280" stroke="rgba(104, 186, 128, 1)" stroke-width="2"></path><path d="M253.33 560C253.33 551.71 270.19 532 280 532C287.36 532 287.67 548.93 287.67 560C287.67 562.93 283.84 560 280 560C266.66 560 253.33 565.71 253.33 560" stroke="rgba(104, 186, 128, 1)" stroke-width="2"></path><path d="M819.1 560C819.1 554.97 830 542.28 840 542.28C848.98 542.28 857.07 554.77 857.07 560C857.07 563.63 848.54 560 840 560C829.55 560 819.1 563.83 819.1 560" stroke="rgba(104, 186, 128, 1)" stroke-width="2"></path></g><defs><mask id="SvgjsMask1081"><rect width="1440" height="560" fill="#ffffff"></rect></mask><linearGradient x1="15.28%" y1="-39.29%" x2="84.72%" y2="139.29%" gradientUnits="userSpaceOnUse" id="SvgjsLinearGradient1082"><stop stop-color="rgba(79, 154, 100, 1)" offset="0"></stop><stop stop-color="rgba(30, 66, 40, 1)" offset="1"></stop></linearGradient></defs></svg>