<svg width="129" height="163" viewBox="0 0 129 163" xmlns="http://www.w3.org/2000/svg" xmlns:xlink="http://www.w3.org/1999/xlink"><defs><path id="a" d="M128.7.3V94H0V.3h128.7z"/></defs><g fill="none" fill-rule="evenodd"><g transform="translate(0 .2)"><mask id="b" fill="#fff"><use xlink:href="#a"/></mask><path d="M128 63.3l-5.5-2.9c-.7-.3-.9-1.2-.3-1.8l2-2c.7-.6.5-1.1-.4-1.1h-18c-.9 0-1-.5-.5-1.1l4.3-4.3c.6-.6.4-1.1-.4-1.1h-2.9c-.8 0-1.3-.7-1-1.5l1.9-6c.2-.8-.2-1.2-1-1l-6 2c-.8.2-1.4-.3-1.4-1.1v-2.9c0-.9-.5-1-1.2-.5L85 51c-.6.6-1.1 1.8-1.1 2.6V62h-6.6c-4.2 0-7.9 2.9-10.8 8.4V48.2h9c1 0 2.2-.6 2.8-1.2l13.6-13.6c.7-.7.5-1.2-.4-1.2h-3c-1 0-1.5-.7-1.2-1.6l2-6.3c.3-.9-.2-1.4-1-1.1l-6.3 2c-1 .3-1.6-.2-1.6-1V21c0-1-.6-1.2-1.2-.5l-4.6 4.6c-.6.6-1.2.4-1.2-.5V5.5c0-1-.5-1.2-1.1-.5L70 7c-.6.7-1.5.5-2-.3l-3-6c-.3-.7-1-.7-1.4 0l-3 6c-.4.8-1.3 1-2 .3l-2-2c-.7-.7-1.2-.5-1.2.5v19.2c0 .9-.5 1.1-1.1.5l-4.6-4.6c-.7-.7-1.2-.4-1.2.5v3c0 1-.7 1.4-1.6 1.2l-6.3-2.1c-.9-.3-1.3.2-1 1l2 6.4c.3.9-.2 1.6-1.1 1.6h-3.1c-1 0-1.1.5-.5 1.2L50.4 47c.7.6 2 1.2 2.8 1.2h9v22.1c-2.9-5.5-6.6-8.4-10.7-8.4h-6.6v-8.4c0-.8-.5-2-1.1-2.6L31 38c-.6-.6-1-.4-1 .5v2.9c0 .8-.8 1.3-1.6 1l-6-1.9c-.7-.2-1.2.2-.9 1l2 6c.2.8-.3 1.5-1.1 1.5h-3c-.8 0-1 .5-.4 1l4.3 4.4c.7.6.4 1-.4 1h-18c-.9 0-1.1.6-.5 1.2l2 2c.6.6.5 1.4-.3 1.8L.6 63.3c-.8.4-.8 1 0 1.4L6 67.5c.8.4 1 1.2.3 1.8l-2 2c-.6.7-.4 1.2.5 1.2h18c.8 0 1 .5.4 1L19 78c-.6.6-.4 1.1.5 1.1h2.9c.8 0 1.3.7 1 1.5l-1.9 6c-.3.8.2 1.2 1 1l6-2c.7-.3 1.4.2 1.4 1v3c0 .8.5 1 1.1.4l12.8-12.8c.6-.6 1.1-1.8 1.1-2.7v-8.3h6.6c6.5 0 10.7 14.2 10.7 19.2V94h4.2v-8.7c0-5 4.3-19.2 10.8-19.2h6.6v8.3c0 .9.5 2 1 2.7l12.8 12.8c.7.6 1.1.4 1.1-.4v-3c0-.8.7-1.3 1.5-1l6 2c.8.2 1.2-.2 1-1l-2-6c-.2-.8.3-1.5 1.1-1.5h2.9c.8 0 1-.5.4-1.1l-4.3-4.3c-.6-.6-.4-1.1.5-1.1h18c.9 0 1-.5.5-1.1l-2-2c-.7-.7-.5-1.5.2-1.9l5.6-2.8c.8-.4.8-1 0-1.4" fill="#F82838" mask="url(#b)"/></g><path d="M15.8 111.6c-.6-.7-1.3-1-2.3-1H12v7.2h1.4c1 0 1.9-.4 2.5-1.1.5-.7.8-1.6.8-2.7 0-1-.3-1.7-.9-2.4m2.6 7.2a5.6 5.6 0 0 1-4.4 2H8.5v-13H14c1.8 0 3.3.5 4.5 1.8A6.3 6.3 0 0 1 20 114c0 1.8-.6 3.4-1.7 4.7m14.1-7.3c-.7-.7-1.6-1-2.6-1-1.1 0-2 .3-2.7 1-.7.7-1 1.7-1 2.8 0 1 .3 2 1 2.7.6.7 1.5 1 2.6 1s2-.3 2.7-1a4 4 0 0 0 1-2.8c0-1-.3-2-1-2.7m2.4 7.7a7 7 0 0 1-5 2 7 7 0 0 1-5.2-2c-1.3-1.3-2-3-2-5s.7-3.7 2.1-5a7.5 7.5 0 0 1 10.2 0 7 7 0 0 1 2 4.9c0 2-.7 3.8-2 5.1m20.5 1.5H52l-1-7.4-3 7.4h-1.5l-3-7.5-.8 7.5h-3.4l2-13h3.3l2.7 7.1 2.7-7h3.4zm3.4 0h3.4v-13H59zm20.3 0h-3.4l-6-7.7v7.7h-3.3v-13h3.4l6 7.7v-7.7h3.3zm4 0h3.4v-13h-3.3zm16.6-9.2c-.7-.7-1.6-1-2.7-1-1 0-2 .3-2.6 1-.7.7-1 1.7-1 2.8 0 1 .2 2 1 2.7.6.7 1.5 1 2.6 1s2-.3 2.7-1a4 4 0 0 0 1-2.8c0-1-.3-2-1-2.7m2.4 7.7a7 7 0 0 1-5 2 7 7 0 0 1-5.2-2c-1.3-1.3-2-3-2-5s.7-3.7 2-5c1.5-1.3 3.1-2 5.1-2 2 0 3.8.7 5.1 2 1.4 1.4 2 3 2 4.9 0 2-.6 3.8-2 5.1m18 1.5h-3.4l-6-7.7v7.7h-3.4v-13h3.4l6 7.7v-7.7h3.3zm-67.7 11.5c-1-.8-2-1.1-3.3-1.1-1 0-1.9.3-2.5 1-.6.7-.9 1.6-.9 2.8 0 1 .4 1.8 1 2.5.7.6 1.6 1 2.6 1s2-.4 3-1.1v3.4c-1.2.6-2.3.8-3.2.8-2 0-3.6-.6-4.8-1.9a6.4 6.4 0 0 1-2-4.8 7 7 0 0 1 1.8-5c1.3-1.3 2.9-2 4.9-2 1.2 0 2.4.3 3.4.9v3.5zm3.8 9h3.4v-13h-3.4zm15.4-9.9H69v10h-3.5v-10h-2.7v-3h8.9zm14.6-3l-4.8 7.1v5.8H78v-5.7l-5-7.3h4.3l2.4 4 2.4-4zm-56.4 23.6l-.4-.1-.4 1.1.4.2c.5.1.8 0 .9-.4.1-.4 0-.6-.5-.8m-.6 2.4l-.7-.2-.4 1.3.7.3c.5.1.9 0 1-.4.2-.5 0-.8-.6-1m1.1 2.7c-.5.2-1 .2-1.6 0l-2.6-1 2.1-6 2.5 1c.5.1.9.4 1 .7.3.4.4.8.2 1.3-.2.6-.6 1-1.3 1 .8.5 1 1 .8 1.9-.2.6-.6 1-1.1 1.1m6.6-2.8l-.5-.2-.4 1.6.5.1c.6.2.9 0 1-.5.2-.6 0-.9-.6-1zm1.7 5.7l-1.9-.5-.7-2.5-.3-.1-.6 2.2-1.6-.5 1.7-6.1 2.4.6c.6.2 1 .5 1.4 1 .3.4.3 1 .2 1.5-.2.9-.7 1.3-1.5 1.4l1 3zm6.3 1.3l-3.7-.7 1.2-6.3 3.6.7-.2 1.4-2-.4-.2 1 1.8.4-.2 1.4-1.9-.4-.2 1 2 .5zm13-4.9l-2.6 6.2-1.7-.2-.8-4-1.5 3.8-1.7-.2-1.4-6.5 1.7.1.8 4.4 1.8-4.1 1.1.1 1 4.3 1.7-4zm3.8 6.4H60l.2-6.4H62zm9.5-.3l-1.6.1-3.1-3.6.2 3.7-1.7.1-.3-6.3 1.6-.1 3.2 3.6-.2-3.8H71zm9-4.4c.2 1 0 2-.4 2.6-.4.7-1.2 1.2-2.3 1.3-1 .1-1.7 0-2.4-.6a3.4 3.4 0 0 1-1.3-2.3c-.1-1 0-1.8.6-2.5.5-.8 1.3-1.2 2.2-1.3 1.3-.2 2.3.2 3 1.1l-1.2 1a1 1 0 0 0-.2-.3 1.7 1.7 0 0 0-1.4-.4c-.6 0-1 .3-1.2.8-.1.4-.2.9-.1 1.4 0 .6.3 1 .6 1.3.3.4.8.5 1.4.4a1.5 1.5 0 0 0 .8-.4c.3-.3.4-.6.4-.9l-1.4.2-.2-1.3 3.1-.5v.4zm10.9-3.7c-.5-.3-1-.3-1.7-.2-.5.2-.9.5-1 .9a2 2 0 0 0-.1 1.4c.1.5.4.8.8 1 .4.3.8.3 1.3.2.5-.2 1-.4 1.3-1l.5 1.7a4 4 0 0 1-1.5.8c-.9.3-1.7.2-2.5-.3a3.2 3.2 0 0 1-1.5-2c-.3-1-.2-1.8.2-2.6a3 3 0 0 1 2-1.6 3.5 3.5 0 0 1 1.8 0l.4 1.7zm6.8-2.4c-.5-.2-1-.2-1.4 0-.5.1-.9.4-1 .9-.3.4-.3.9-.1 1.4s.5.9 1 1c.3.3.8.3 1.3.1.5-.1.9-.5 1.1-1 .2-.4.2-.8 0-1.4-.2-.5-.5-.8-1-1m2.5 3.1c-.4.9-1.1 1.5-2 1.8-1 .3-1.9.3-2.7 0a3.6 3.6 0 0 1-1.7-4.7c.5-.8 1.1-1.4 2-1.7 1-.4 1.9-.3 2.7 0a3 3 0 0 1 1.8 2c.3.9.3 1.8-.1 2.6m4.6-1.2a.9.9 0 0 1-.5.6.9.9 0 0 1-.7 0 .9.9 0 0 1-.6-.5.9.9 0 0 1 0-.8.9.9 0 0 1 .5-.5.9.9 0 0 1 .8 0 .9.9 0 0 1 .5.5v.7" fill="#F82838"/></g></svg>